Coordinates
version=1
nRows=8
nColumns=46
inDegrees=yes

Units are S.I. units (second, meters, Newtons, ...)
Angles are in degrees.

endheader
time	pelvis_tilt	pelvis_list	pelvis_rotation	pelvis_tx	pelvis_ty	pelvis_tz	bb_angle	bb_tx	bb_ty	bb_tz	hip_flexion_r	hip_adduction_r	hip_rotation_r	knee_angle_r	knee_angle_r_beta	ankle_angle_r	subtalar_angle_r	mtp_angle_r	crank_angle_r	hip_flexion_l	hip_adduction_l	hip_rotation_l	knee_angle_l	knee_angle_l_beta	ankle_angle_l	subtalar_angle_l	mtp_angle_l	crank_angle_l	lumbar_extension	lumbar_bending	lumbar_rotation	arm_flex_r	arm_add_r	arm_rot_r	elbow_flex_r	pro_sup_r	wrist_flex_r	wrist_dev_r	arm_flex_l	arm_add_l	arm_rot_l	elbow_flex_l	pro_sup_l	wrist_flex_l	wrist_dev_l
      7.50500000	    -11.70066854	     -5.75736577	     -7.55347572	      0.09464653	      1.16088717	     -0.25841184	      0.00000000	      0.50000000	      0.00000000	      0.25000000	     92.04708186	     -3.27256293	     -1.27568214	    106.21512208	      1.85380360	      7.97079657	      3.67325082	      0.00000000	      0.00000000	     46.56111398	    -21.32000754	    -16.00105062	     53.36276339	      0.93135592	    -13.88157744	      8.68320119	      0.00000000	      0.00000000	    -62.46461215	      6.53066531	      8.22199490	     89.78238473	     -1.88419639	     26.32504557	     45.81091654	     23.33598311	      0.00000000	      0.00000000	     89.70970887	    -10.24386152	     30.23403412	     34.21542579	     21.27260733	      0.00000000	      0.00000000
      7.51000000	    -11.68669139	     -5.61442681	     -7.65215355	      0.09433658	      1.16121285	     -0.25789839	      0.00000000	      0.50000000	      0.00000000	      0.25000000	     91.39948627	     -3.04749821	     -1.28834058	    104.70347507	      1.82742038	      9.18554033	      3.97904718	      0.00000000	      0.00000000	     47.12748236	    -21.58607174	    -15.89086024	     55.03690800	      0.96057525	    -14.75430905	      7.89165027	      0.00000000	      0.00000000	    -62.54195663	      6.38818153	      8.12242519	     89.78174235	     -1.85288657	     26.20923983	     46.13795981	     23.42069583	      0.00000000	      0.00000000	     89.70776450	    -10.46973686	     30.06269116	     34.51782903	     21.43817018	      0.00000000	      0.00000000
      7.51500000	    -11.61924320	     -5.35609398	     -7.66641468	      0.09413310	      1.16146770	     -0.25742311	      0.00000000	      0.50000000	      0.00000000	      0.25000000	     90.62070841	     -2.98329008	     -1.23194379	    103.11340640	      1.79966844	     10.35786056	      4.23939291	      0.00000000	      0.00000000	     47.65349815	    -21.70766821	    -15.82282202	     56.72975440	      0.99012100	    -15.49416133	      7.22653069	      0.00000000	      0.00000000	    -62.54221912	      6.15835237	      7.85195227	     89.77923989	     -1.81378560	     26.22742382	     46.13566023	     23.35831012	      0.00000000	      0.00000000	     89.71070936	    -10.43569184	     30.12386373	     34.45447219	     21.40620695	      0.00000000	      0.00000000
      7.52000000	    -11.68302324	     -5.24005389	     -7.67722966	      0.09393976	      1.16164404	     -0.25699862	      0.00000000	      0.50000000	      0.00000000	      0.25000000	     89.74869205	     -2.95843978	     -1.35700169	    101.29719056	      1.76796950	     11.70928621	      4.93023870	      0.00000000	      0.00000000	     48.42202267	    -21.88630918	    -15.51523940	     58.45980465	      1.02031607	    -16.75540991	      6.35913545	      0.00000000	      0.00000000	    -62.49361980	      6.13098021	      7.80613344	     89.78212092	     -1.71955779	     26.27804744	     46.07084751	     23.24005522	      0.00000000	      0.00000000	     89.71051312	    -10.46525591	     30.17466811	     34.40391806	     21.36107590	      0.00000000	      0.00000000
      7.52500000	    -11.58917617	     -4.94671750	     -7.62209313	      0.09388126	      1.16163263	     -0.25641371	      0.00000000	      0.50000000	      0.00000000	      0.25000000	     88.72789235	     -3.08846971	     -1.42137423	     99.49860884	      1.73657833	     12.83620483	      5.17130896	      0.00000000	      0.00000000	     49.02788254	    -21.93448754	    -15.36822525	     60.31001723	      1.05260837	    -17.26054545	      5.55882448	      0.00000000	      0.00000000	    -62.50123777	      5.90362344	      7.51908500	     89.77879803	     -1.75554351	     26.27447644	     46.01748570	     23.15762173	      0.00000000	      0.00000000	     89.71254539	    -10.41851748	     30.20442420	     34.39896389	     21.33494607	      0.00000000	      0.00000000
      7.53000000	    -11.52021324	     -4.73363133	     -7.56071762	      0.09375637	      1.16159406	     -0.25578302	      0.00000000	      0.50000000	      0.00000000	      0.25000000	     87.58342324	     -3.14501291	     -1.53320368	     97.52623237	      1.70215386	     13.93071892	      5.49644646	      0.00000000	      0.00000000	     49.72541523	    -22.04055214	    -15.11344243	     62.20983606	      1.08576647	    -17.71018432	      4.65792309	      0.00000000	      0.00000000	    -62.49209843	      5.72931559	      7.32040825	     89.77837887	     -1.78039404	     26.28772281	     45.93206997	     23.06651241	      0.00000000	      0.00000000	     89.71625466	    -10.34281571	     30.21325375	     34.42711832	     21.31087471	      0.00000000	      0.00000000
      7.53500000	    -11.44232999	     -4.18770422	     -7.44704092	      0.09369639	      1.16168129	     -0.25505235	      0.00000000	      0.50000000	      0.00000000	      0.25000000	     86.46398841	     -3.30585658	     -1.34461085	     95.44676765	      1.66586036	     14.43744903	      5.52870051	      0.00000000	      0.00000000	     50.26936397	    -21.80536001	    -15.02721720	     63.92268683	      1.11566135	    -17.96813620	      4.39277264	      0.00000000	      0.00000000	    -62.41871323	      5.30237238	      6.75536153	     89.77325947	     -1.88752399	     26.24377485	     45.92071403	     23.04024409	      0.00000000	      0.00000000	     89.72332269	    -10.14556205	     30.26115521	     34.47274749	     21.31220656	      0.00000000	      0.00000000
      7.54000000	    -11.33325925	     -4.31244430	     -7.26421754	      0.09358949	      1.16128632	     -0.25429441	      0.00000000	      0.50000000	      0.00000000	      0.25000000	     85.03856570	     -3.37840627	     -1.86985546	     93.30874055	      1.62854474	     15.55461953	      5.92636392	      0.00000000	      0.00000000	     51.21517942	    -22.14515962	    -14.40917021	     66.08628840	      1.15342332	    -18.39022606	      3.09494518	      0.00000000	      0.00000000	    -62.45373048	      5.37851070	      6.87684771	     89.77460955	     -1.94564827	     26.32256170	     45.68154404	     22.87350044	      0.00000000	      0.00000000	     89.72266007	     -9.98121658	     30.19394855	     34.54312334	     21.26437281	      0.00000000	      0.00000000
